<svg xmlns="http://www.w3.org/2000/svg" width="176.924" height="217.182" viewBox="0 0 176.924 217.182">
  <g id="Grupo_2150" data-name="Grupo 2150" transform="translate(-699.959 -727)">
    <g id="Grupo_2104" data-name="Grupo 2104" transform="translate(-941.51 -15)">
      <g id="_7qXhPC.tif" data-name="7qXhPC.tif">
        <g id="Grupo_2091" data-name="Grupo 2091">
          <path id="Trazado_2394" data-name="Trazado 2394" d="M1764.99,941c-.009-15.248-.041-30.495,0-45.743.006-1.924-.308-3.11-2.575-3.374-10.263-1.2-18.533-6.041-25.017-14.025-.313-.385-.651-.751-1.173-1.351-2.716,1.521-5.461,3.019-8.168,4.583-13.828,7.986-27.624,16.027-41.494,23.939-1.785,1.018-2.194,2.029-1.808,3.977,1.515,7.657-2.932,15.1-9.864,16.778-8.052,1.954-15.24-2.027-17.7-9.8a14.378,14.378,0,0,1,6.16-16.088c5.1-3.273,12.587-2.711,16.975,1.561a3.851,3.851,0,0,0,4.623.5c15.729-9.188,31.528-18.257,47.3-27.373a12.34,12.34,0,0,0,1.282-.885c-1.427-5.319-2.708-10.27-4.146-15.174-.146-.5-1.239-.988-1.908-1.011-3.163-.108-6.332-.056-9.5-.056-14.917,0-29.835.054-44.751-.05-2.342-.017-3.375.574-3.813,2.993-1.241,6.837-7.849,11.374-15.232,10.732-6.814-.592-12.535-6.525-12.705-13.175-.186-7.279,4.241-13.465,10.564-14.762,7.769-1.593,14.275,1.758,17.09,9a2.255,2.255,0,0,0,2.486,1.763q27.751-.045,55.5,0c1.54,0,2.044-.478,2.323-2.091.718-4.153,1.687-8.275,2.806-12.34.408-1.48.305-2.178-1.074-2.968q-24.138-13.833-48.187-27.817c-1.731-1.009-2.637-.337-3.884.69a14.27,14.27,0,0,1-22.686-5.757,14.484,14.484,0,0,1,3.35-15.24,13.672,13.672,0,0,1,15.026-3.122c5.66,2.1,8.776,6.414,9.117,12.518a10.4,10.4,0,0,1-.383,4.439c-.864,2.064.081,2.786,1.63,3.672,10.612,6.073,21.187,12.212,31.776,18.326,5.259,3.036,10.556,6.006,15.764,9.126,2.273,1.362,2.648-.049,5.508-3.467a41.231,41.231,0,0,1,5.322-5.231c1.905-1.583,2.338-2.347,1.316-4.107q-14.1-24.27-28.07-48.615c-.764-1.329-1.553-1.54-3.032-1.092a14.26,14.26,0,1,1,8.894-19.867,13.923,13.923,0,0,1-2.513,15.959,2.253,2.253,0,0,0-.377,3.212q14.157,24.381,28.189,48.835c1.059,1.852,2,1.313,3.387.723,13.762-5.859,26.908-4.718,38.9,4.29,12.073,9.065,16.794,21.648,14.539,36.315-2.206,14.35-10.7,24.294-24.306,29.538a52.846,52.846,0,0,1-9.943,2.232,2.579,2.579,0,0,0-2.13,2.556q.094,23.164.108,46.328Z" fill="#58a66f"/>
        </g>
      </g>
    </g>
    <path id="Trazado_2396" data-name="Trazado 2396" d="M829.556,12734v18.432h51.633" transform="translate(-4.306 -11810)" fill="none" stroke="#58a66f" stroke-width="3.5"/>
    <circle id="Elipse_151" data-name="Elipse 151" cx="15" cy="15" r="15" transform="translate(754 727)" fill="#e28833"/>
    <circle id="Elipse_152" data-name="Elipse 152" cx="15" cy="15" r="15" transform="translate(713 769)" fill="#e28833"/>
    <circle id="Elipse_153" data-name="Elipse 153" cx="15" cy="15" r="15" transform="translate(700 827)" fill="#e28833"/>
    <circle id="Elipse_154" data-name="Elipse 154" cx="15" cy="15" r="15" transform="translate(714 882)" fill="#e28833"/>
  </g>
</svg>
