<svg xmlns="http://www.w3.org/2000/svg" width="352.148" height="139.439" viewBox="0 0 352.148 139.439">
  <g id="Grupo_2149" data-name="Grupo 2149" transform="translate(0 0)">
    <g id="JwPzyi.tif" transform="translate(0 18.299)">
      <g id="Grupo_2067" data-name="Grupo 2067">
        <path id="Trazado_2366" data-name="Trazado 2366" d="M2277,442.494c1.172.027,2.343.076,3.516.078a8.629,8.629,0,0,0,8.786-8.553,9.9,9.9,0,0,1,3.116-7.41,9.281,9.281,0,0,1,9.366-2.144,9.462,9.462,0,0,1,6.652,7.215,9.891,9.891,0,0,1-4.574,10.379c-.146.081-.375.11-.367.385.371.253.794.122,1.187.123,5.864.011,11.729-.073,17.592.041,3.38.066,5.5-1.7,7.177-4.295a9.833,9.833,0,0,0,1.358-5.083,9.655,9.655,0,0,1,18.656-2.971,9.656,9.656,0,0,1-3.784,11.554c-.241.159-.469.339-.951.689.657.034,1.045.06,1.434.074,3.546.125,7.089-.155,10.643.34a31.726,31.726,0,0,1,27.326,31.374q-.035,29.059-.031,58.117c0,1.048.211,1.552,1.332,1.887,2.643.789,3.946,3.223,3.619,6.3a5.446,5.446,0,0,1-4.64,4.5c-3.2.323-5.5-1.169-6.266-3.853a5.5,5.5,0,0,1,3.652-7.053,1.3,1.3,0,0,0,1.059-1.521c-.015-19.9.162-39.806-.093-59.705-.109-8.494-3.875-15.645-10.223-21.357a30.551,30.551,0,0,0-14.651-7.222,25.971,25.971,0,0,0-5.179-.552q-14.017.012-28.035,0a1.029,1.029,0,0,0-.841.187c.7.672,1.526,1.171,2.2,1.843a9.807,9.807,0,0,1,2.1,10.492,9.7,9.7,0,0,1-18.068-.565,14.389,14.389,0,0,1-.535-3.688,9.359,9.359,0,0,0-5.383-7.965,3.309,3.309,0,0,0-1.64-.306q-11.577,0-23.154,0a8.087,8.087,0,0,1-2.364-.206Z" transform="translate(-2277 -424)" fill="#58a66f"/>
      </g>
    </g>
    <g id="_6KLRSZ.tif" data-name="6KLRSZ.tif" transform="translate(352.147 78.869) rotate(180)">
      <g id="Grupo_2088" data-name="Grupo 2088" transform="translate(0 0)">
        <path id="Trazado_2393" data-name="Trazado 2393" d="M352.147,42.026q-38.547,0-77.094-.04a7.89,7.89,0,0,0-5.614,2.188c-4.605,4.112-6.578,9.3-6.805,15.375-.3,8.149-4.285,14.174-11.644,17.435-7.487,3.316-14.73,2.239-21.135-3.065-8.5-7.038-9.149-20.766-1.419-28.632.886-.9,1.664-1.913,2.629-3.033a12.433,12.433,0,0,0-1.686-.218c-10.36-.015-20.721.021-31.08-.039-2.642-.015-4.182,1.75-5.732,3.334a19.29,19.29,0,0,0-5.579,13.644c-.149,9.879-7.445,18.437-16.7,19.563-10.644,1.293-19.914-4.638-22.346-14.782-1.849-7.712.25-14.494,6.257-19.891.4-.357.806-.7,1.189-1.076.074-.073.049-.249.11-.636-.648-.056-1.277-.158-1.905-.158-8.543,0-17.088.107-25.63-.025a8.583,8.583,0,0,0-6.295,2.567c-4.55,4.2-6.265,9.557-6.476,15.555-.327,9.246-7.792,17.5-16.684,18.466C88.181,79.677,79.062,73.894,76.5,64.6A19.835,19.835,0,0,1,86.669,41.109a4.251,4.251,0,0,0,1.806-1.545H86.609c-9.351,0-18.7.153-28.052-.049-7.516-.163-16.019,5.69-18.137,14.228a26.467,26.467,0,0,0-.737,5.768A19.814,19.814,0,0,1,16.958,78.542,19.58,19.58,0,0,1,.278,55.817C1.98,45.584,9.875,39.06,20.532,39c8.611-.052,17.221-.006,25.832-.015a4.822,4.822,0,0,0,2.41-.552c-.4-.266-.786-.563-1.208-.791C38.421,32.68,34.432,23.361,37.524,13.614,40.016,5.76,47.727-.812,58.51.133c9.071.794,16.962,8.6,17.48,17.688.329,5.766,1.37,11.216,5.662,15.5,3.551,3.543,7.628,5.766,12.858,5.7,9.484-.118,18.97-.031,28.456-.047a19.912,19.912,0,0,0,2.023-.186c-2.55-2.113-5.406-3.883-7.487-6.315a19.676,19.676,0,0,1,1.666-27.138,19.961,19.961,0,0,1,27.563.378,20.22,20.22,0,0,1,5.94,14.748c.078,8.656,6.892,16.975,15.023,18.353a14.525,14.525,0,0,0,2.407.166q11.806.019,23.612,0a4.439,4.439,0,0,0,2.444-.639c-.716-.388-1.439-.767-2.149-1.166-8.1-4.544-11.813-13.686-9.338-23C186.854,5.968,194.777.286,203.649.043c10.368-.285,19.723,8.66,19.882,19.183.137,9.072,4.428,15.6,13.013,18.968a12.106,12.106,0,0,0,4.319.758q54.692.062,109.384.069" fill="#58a66f"/>
      </g>
    </g>
  </g>
</svg>
