<svg xmlns="http://www.w3.org/2000/svg" xmlns:xlink="http://www.w3.org/1999/xlink" width="187.277" height="201.323" viewBox="0 0 187.277 201.323">
  <defs>
    <clipPath id="clip-path">
      <path id="Trazado_2392" data-name="Trazado 2392" d="M2464.023,619.582s3.753-6.549,15.2-5.96c1.625.083.824,2.257.426,3.024a12.612,12.612,0,0,1-3.784,4.224,14.4,14.4,0,0,1-10.81,2.134c-.814-.149-2.071-.161-2-1.1A8.152,8.152,0,0,1,2464.023,619.582Z" transform="translate(-2463.053 -613.584)" fill="#467728"/>
    </clipPath>
  </defs>
  <g id="Grupo_2151" data-name="Grupo 2151" transform="translate(-1533.342 -3681.801)">
    <g id="JwPzyi.tif" transform="translate(1533.342 3681.801)">
      <g id="Grupo_2067" data-name="Grupo 2067">
        <path id="Trazado_2366" data-name="Trazado 2366" d="M2277,454.154c1.91.044,3.821.124,5.732.127a14.07,14.07,0,0,0,14.326-13.945c.168-4.672,1.512-8.883,5.081-12.082a15.131,15.131,0,0,1,15.27-3.5c5.814,1.778,9.288,5.8,10.846,11.765,1.594,6.1-1.868,13.792-7.458,16.922-.237.132-.611.179-.6.628.6.412,1.294.2,1.934.2,9.561.018,19.125-.118,28.683.068,5.512.107,8.973-2.768,11.7-7a16.027,16.027,0,0,0,2.214-8.288,15.742,15.742,0,0,1,30.419-4.845,15.744,15.744,0,0,1-6.17,18.839c-.393.259-.764.552-1.55,1.124,1.072.056,1.7.1,2.338.12,5.782.2,11.559-.253,17.354.554A51.726,51.726,0,0,1,2451.677,506q-.056,47.38-.05,94.759c0,1.71.344,2.531,2.172,3.077,4.31,1.286,6.433,5.256,5.9,10.269a8.88,8.88,0,0,1-7.566,7.345c-5.211.527-8.962-1.907-10.217-6.282-1.486-5.181.991-9.873,5.955-11.5a2.121,2.121,0,0,0,1.726-2.479c-.025-32.451.264-64.9-.152-97.349-.178-13.85-6.318-25.509-16.668-34.822a49.814,49.814,0,0,0-23.888-11.776,42.349,42.349,0,0,0-8.444-.9q-22.855.019-45.71.006a1.678,1.678,0,0,0-1.371.305c1.139,1.1,2.488,1.909,3.594,3.006a15.989,15.989,0,0,1,3.431,17.106,15.817,15.817,0,0,1-29.46-.921,23.492,23.492,0,0,1-.872-6.013c-.455-5.982-3.519-10.216-8.776-12.987a5.4,5.4,0,0,0-2.675-.5q-18.877,0-37.753,0a13.185,13.185,0,0,1-3.855-.336Z" transform="translate(-2277 -424)" fill="#58a66f"/>
      </g>
    </g>
    <g id="Grupo_2109" data-name="Grupo 2109" transform="translate(1688.771 3846.315)">
      <path id="Elipse_182" data-name="Elipse 182" d="M2468.879,647.245c-8.793-.114-15.834-7.052-15.723-15.495s7.328-15.193,16.121-15.079,15.833,7.052,15.724,15.495-7.328,15.193-16.122,15.079" transform="translate(-2453.154 -610.437)" fill="#e28833"/>
      <ellipse id="Elipse_183" data-name="Elipse 183" cx="2.476" cy="2.579" rx="2.476" ry="2.579" transform="translate(8.719 23.58) rotate(-89.253)" fill="#251e11"/>
      <ellipse id="Elipse_184" data-name="Elipse 184" cx="2.476" cy="2.579" rx="2.476" ry="2.579" transform="translate(23.855 23.885) rotate(-89.253)" fill="#251e11"/>
      <ellipse id="Elipse_185" data-name="Elipse 185" cx="0.754" cy="1.458" rx="0.754" ry="1.458" transform="translate(6.576 24.521) rotate(-89.253)" fill="#e09d99"/>
      <ellipse id="Elipse_186" data-name="Elipse 186" cx="0.754" cy="1.458" rx="0.754" ry="1.458" transform="translate(27.88 24.799) rotate(-89.253)" fill="#e09d99"/>
      <path id="Trazado_93" data-name="Trazado 93" d="M2464.7,627.95a.347.347,0,0,1,0-.123.415.415,0,0,1,.258-.266,3.639,3.639,0,0,1,.973-.159c.346-.033.693-.052,1.041-.059a7.658,7.658,0,0,1,2.079.162.965.965,0,0,1,.56.3c.451.652-.465,2.147-2.034,2.127a3.716,3.716,0,0,1-1.764-.363,2.432,2.432,0,0,1-1.08-1.456A.77.77,0,0,1,2464.7,627.95Z" transform="translate(-2447.988 -605.666)" fill="#251e11"/>
      <path id="Trazado_94" data-name="Trazado 94" d="M2465.152,627.993s1.126-.416,1.573-.2,1.329,1.31,1.1,1.307A2.16,2.16,0,0,1,2465.152,627.993Z" transform="translate(-2447.783 -605.485)" fill="#ce7a5b"/>
      <ellipse id="Elipse_187" data-name="Elipse 187" cx="0.323" cy="0.336" rx="0.323" ry="0.336" transform="translate(9.377 16.159) rotate(-89.253)" fill="#b35531" opacity="0.45" style="isolation: isolate"/>
      <ellipse id="Elipse_188" data-name="Elipse 188" cx="0.323" cy="0.336" rx="0.323" ry="0.336" transform="translate(16.127 14.524) rotate(-89.253)" fill="#b35531" opacity="0.45" style="isolation: isolate"/>
      <ellipse id="Elipse_189" data-name="Elipse 189" cx="0.323" cy="0.336" rx="0.323" ry="0.336" transform="translate(19.877 19.311) rotate(-89.253)" fill="#b35531" opacity="0.45" style="isolation: isolate"/>
      <ellipse id="Elipse_190" data-name="Elipse 190" cx="0.323" cy="0.336" rx="0.323" ry="0.336" transform="translate(28.987 25.89) rotate(-89.253)" fill="#b35531" opacity="0.45" style="isolation: isolate"/>
      <ellipse id="Elipse_191" data-name="Elipse 191" cx="0.323" cy="0.336" rx="0.323" ry="0.336" transform="translate(23.162 25.383) rotate(-89.253)" fill="#b35531" opacity="0.45" style="isolation: isolate"/>
      <ellipse id="Elipse_195" data-name="Elipse 195" cx="0.323" cy="0.336" rx="0.323" ry="0.336" transform="translate(13.5 26.765) rotate(-89.253)" fill="#b35531" opacity="0.45" style="isolation: isolate"/>
      <ellipse id="Elipse_198" data-name="Elipse 198" cx="0.323" cy="0.336" rx="0.323" ry="0.336" transform="translate(25.747 16.373) rotate(-89.253)" fill="#b35531" opacity="0.45" style="isolation: isolate"/>
      <ellipse id="Elipse_199" data-name="Elipse 199" cx="0.323" cy="0.336" rx="0.323" ry="0.336" transform="translate(21.108 10.929) rotate(-89.253)" fill="#b35531" opacity="0.45" style="isolation: isolate"/>
      <ellipse id="Elipse_200" data-name="Elipse 200" cx="0.323" cy="0.336" rx="0.323" ry="0.336" transform="translate(10.372 8.635) rotate(-89.253)" fill="#b35531" opacity="0.45" style="isolation: isolate"/>
      <ellipse id="Elipse_201" data-name="Elipse 201" cx="0.323" cy="0.336" rx="0.323" ry="0.336" transform="translate(3.106 15.431) rotate(-89.253)" fill="#b35531" opacity="0.45" style="isolation: isolate"/>
      <ellipse id="Elipse_202" data-name="Elipse 202" cx="0.323" cy="0.336" rx="0.323" ry="0.336" transform="translate(5.495 21.492) rotate(-89.253)" fill="#b35531" opacity="0.45" style="isolation: isolate"/>
      <path id="Trazado_95" data-name="Trazado 95" d="M2453.964,614.224s3.979,7.793,13.161,8.221,7.16-2.881,7.16-2.881l-2.536-1.992s-3.336-8.482-16.774-3.8l-1.011.447" transform="translate(-2452.792 -612.365)" fill="#467728"/>
      <path id="Trazado_2390" data-name="Trazado 2390" d="M2453.964,614.224s3.979,7.793,13.161,8.221,7.16-2.881,7.16-2.881l-2.536-1.992s-3.336-8.482-16.774-3.8l-1.011.447" transform="translate(-2452.792 -612.365)" fill="none"/>
      <path id="Trazado_96" data-name="Trazado 96" d="M2474.272,619.991s-16.852-7.777-20.309-6.283" transform="translate(-2452.792 -611.849)" fill="none" stroke="#1d1811" stroke-miterlimit="10" stroke-width="0.155"/>
      <path id="Trazado_98" data-name="Trazado 98" d="M2453.964,614.224s3.979,7.793,13.161,8.221,7.16-2.881,7.16-2.881l-2.536-1.992s-3.336-8.482-16.774-3.8l-1.011.447" transform="translate(-2452.792 -612.365)" fill="none" stroke="#1d1811" stroke-miterlimit="10" stroke-width="0.155"/>
      <g id="Grupo_2063" data-name="Grupo 2063" transform="translate(14.33 1.765)">
        <path id="Trazado_99" data-name="Trazado 99" d="M2464.023,619.582s3.753-6.549,15.2-5.96c1.625.083.824,2.257.426,3.024a12.612,12.612,0,0,1-3.784,4.224,14.4,14.4,0,0,1-10.81,2.134c-.814-.149-2.071-.161-2-1.1A8.152,8.152,0,0,1,2464.023,619.582Z" transform="translate(-2463.053 -613.584)" fill="#467728"/>
        <g id="Grupo_2085" data-name="Grupo 2085">
          <path id="Trazado_2391" data-name="Trazado 2391" d="M2464.023,619.582s3.753-6.549,15.2-5.96c1.625.083.824,2.257.426,3.024a12.612,12.612,0,0,1-3.784,4.224,14.4,14.4,0,0,1-10.81,2.134c-.814-.149-2.071-.161-2-1.1A8.152,8.152,0,0,1,2464.023,619.582Z" transform="translate(-2463.053 -613.584)" fill="#467728"/>
          <g id="Grupo_2084" data-name="Grupo 2084" clip-path="url(#clip-path)">
            <g id="Grupo_2062" data-name="Grupo 2062" transform="translate(0.003 0.214)">
              <path id="Trazado_100" data-name="Trazado 100" d="M2463.055,621.833s7.487-6.953,16.76-8.1" transform="translate(-2463.055 -613.732)" fill="none" stroke="#1d1811" stroke-miterlimit="10" stroke-width="0.155"/>
            </g>
          </g>
        </g>
        <path id="Trazado_102" data-name="Trazado 102" d="M2464.023,619.582s3.753-6.549,15.2-5.96c1.625.083.824,2.257.426,3.024a12.612,12.612,0,0,1-3.784,4.224,14.4,14.4,0,0,1-10.81,2.134c-.814-.149-2.071-.161-2-1.1A8.152,8.152,0,0,1,2464.023,619.582Z" transform="translate(-2463.053 -613.584)" fill="none" stroke="#1d1811" stroke-miterlimit="10" stroke-width="0.155"/>
      </g>
    </g>
  </g>
</svg>
