<svg xmlns="http://www.w3.org/2000/svg" width="185.479" height="243.798" viewBox="0 0 185.479 243.798">
  <g id="_1hZiJF" data-name="1hZiJF" transform="translate(-1812.853 -77.872)">
    <g id="Grupo_2106" data-name="Grupo 2106">
      <path id="Trazado_2401" data-name="Trazado 2401" d="M1996.032,237.1a3.92,3.92,0,0,1-3.994,3.818c-14.455-.272-28.913-.447-43.365-.8-14.812-.365-29.937.352-43.832,5.495s-26.534,15.291-31.7,29.179c-4.693,12.627-3.314,27.965-12.235,38.059-6.324,7.157-16.7,9.776-26.164,8.519-10.916-1.449-22.216-9.678-21.885-20.685,3.863,8.045,10.864,14.742,19.41,17.31s18.538.6,24.849-5.709c5.752-5.75,7.926-14.152,8.867-22.23,2.29-19.68-1.337-39.666.666-59.376.614-6.047,1.924-12.388,6.032-16.867,7.573-8.257,20.871-6.828,31.128-11.335a27.735,27.735,0,1,0-36.856-35.82q-1.281-41.361-.677-82.753a4.821,4.821,0,0,1,.744-3.06,4.763,4.763,0,0,1,3.071-1.3c23.288-3.67,47.723-1.409,69.293,8.106,24.318,10.728,42.906,30.37,53.219,54.745,2.279,5.386,4.433,10.948,5.206,16.772.8,6.012.511,12.106.233,18.144C1997.126,197.231,1996.552,217.162,1996.032,237.1Z" fill="#e28833"/>
      <path id="Trazado_2402" data-name="Trazado 2402" d="M1836.939,278.924a271.84,271.84,0,0,1,3.017-35.033,131.333,131.333,0,0,1,8.531-30.923c5.194-12.059,12.41-22.641,24.767-29.229a29.031,29.031,0,0,1,4.781-1.915c1.981-.64,2.8-1.6,2.623-4.04a12.349,12.349,0,0,1,8.715-12.727,13.177,13.177,0,0,1,11.317,1.434c7.4,4.81,7.786,14.776,1.484,20.646-5.08,4.733-14.195,4.181-18.528-1.347-1.342-1.711-2.366-1.954-4.347-1.242-10.135,3.637-17.281,10.666-22.815,19.608-5.851,9.454-9.266,19.845-11.646,30.613a198.946,198.946,0,0,0-4.621,40.852c-.012,1.078-.208,2.154-.318,3.231Z" fill="#040303"/>
      <path id="Trazado_2403" data-name="Trazado 2403" d="M1836.254,279.231l3.469-.413c5.579,1.057,9.982,3.581,11.695,9.386,1.533,5.193.369,9.743-3.616,13.393a12.282,12.282,0,0,1-13.931,2.311,12.155,12.155,0,0,1-7.719-11.051c-.363-6.254,2.995-11.082,8.952-13.148C1835.495,279.573,1835.875,279.4,1836.254,279.231Z" fill="#e28833"/>
    </g>
  </g>
</svg>
