<svg xmlns="http://www.w3.org/2000/svg" width="210.159" height="303.12" viewBox="0 0 210.159 303.12">
  <g id="H3tH4N" transform="matrix(0.848, 0.53, -0.53, 0.848, -1294.85, -1271.29)">
    <g id="Grupo_2105" data-name="Grupo 2105" transform="translate(1896.436 298.611)">
      <path id="Trazado_2397" data-name="Trazado 2397" d="M1947.6,616.018a45.96,45.96,0,0,1,5.727,6.219,86.786,86.786,0,0,1,16.013,29.478,88.245,88.245,0,0,1,3.557,35.378,86.547,86.547,0,0,1-13.556,38.753,38.832,38.832,0,0,1-5.077,6.833,10.255,10.255,0,0,1-13.578.7,10.118,10.118,0,0,1-2.129-13.672,85.674,85.674,0,0,0,7.838-12.816,67.245,67.245,0,0,0-12.25-75.275c-.345-.361-.994-.589-.788-1.3Z" transform="translate(-1908.59 -403.215)" fill="#e28833"/>
      <path id="Trazado_2398" data-name="Trazado 2398" d="M1933.3,403.888c.243-1.246,1.342-1.862,2.1-2.694A66.689,66.689,0,0,0,1951.38,370a65.762,65.762,0,0,0,.988-21.63,67.032,67.032,0,0,0-13.287-33.1,9.9,9.9,0,0,1-.775-11.6c2.314-4.025,6.042-5.492,10.517-4.96a10.035,10.035,0,0,1,6.873,4.368,88.592,88.592,0,0,1,14.694,30.155,87.738,87.738,0,0,1-20.177,82.17c-.766.835-1.1,2.078-2.284,2.524-.667.121-.989-.381-1.372-.766Q1939.925,410.53,1933.3,403.888Z" transform="translate(-1908.583 -298.611)" fill="#e28833"/>
      <path id="Trazado_2399" data-name="Trazado 2399" d="M1921.149,455.637q6.63,6.64,13.261,13.28c.383.384.706.886,1.372.766a91.185,91.185,0,0,0-8.986,11.787,66.612,66.612,0,0,0-9.709,30.877c-1.051,18.278,4.444,34.318,16.222,48.263.716.847,1.425,1.7,2.137,2.554l-14.244,14.3a45.22,45.22,0,0,1-7.359-8.34,85.463,85.463,0,0,1-15.141-32.564,88.258,88.258,0,0,1,19.784-78.177C1919.324,457.421,1920.259,456.549,1921.149,455.637Z" transform="translate(-1896.436 -350.36)" fill="#58a66f"/>
      <path id="Trazado_2400" data-name="Trazado 2400" d="M2004.7,540.307a12.693,12.693,0,0,1-13.116,12.832c-7.124-.034-12.611-5.813-12.622-13.188a12.871,12.871,0,0,1,25.738.356Z" transform="translate(-1923.631 -373.998)" fill="#e28833"/>
    </g>
  </g>
</svg>
