<svg xmlns="http://www.w3.org/2000/svg" width="1167.334" height="348.153" viewBox="0 0 1167.334 348.153">
  <g id="Grupo_2167" data-name="Grupo 2167" transform="translate(40.079 -5133)">
    <path id="Trazado_2664" data-name="Trazado 2664" d="M6982.674,17174.51s-2.027,49.146,37.779,55.867,151.43-61.932,196.53,30.826" transform="translate(-6094 -11808)" fill="none" stroke="#58a66f" stroke-width="9.5"/>
    <g id="Grupo_2146" data-name="Grupo 2146">
      <g id="Grupo_2127" data-name="Grupo 2127" transform="translate(-35.782 4752.596)">
        <g id="Grupo_2125" data-name="Grupo 2125" transform="translate(-4.297 408.058)">
          <g id="Grupo_2124" data-name="Grupo 2124">
            <path id="Trazado_2643" data-name="Trazado 2643" d="M69.832,412.656c39.27,12.011,69.409,37.73,97.908,66.262,27.43,27.462,54.6,56.392,90.317,73.1,73.621,34.443,160.118,16.977,232.228-12.554,80.577-33,156.272-82.651,243.407-97.135,42.731-7.1,88.45-3.692,125.666,20.171,30.832,19.772,47.545,51.086,54.508,86.284,3.955,19.994,5.312,40.31,6.38,60.649h9.324c-.3-5.766-.61-11.522-1.01-17.252-2.319-33.3-6.851-67.908-24.358-97.045-19.883-33.094-55.124-54.107-92.421-61.745-45.514-9.322-92.716-.437-136.172,14-41.87,13.914-81.513,33.544-121.185,52.646C478.7,536.5,394.781,573.5,308.644,558.12a182.3,182.3,0,0,1-57.569-20.275c-17.621-9.928-33.132-22.968-47.746-36.854-28.592-27.17-54.48-58.048-88.629-78.611A192.964,192.964,0,0,0-4.114,396.136c-.062.006-.122.017-.183.023V405.7A184.365,184.365,0,0,1,69.832,412.656Z" transform="translate(4.297 -395.085)" fill="#58a66f"/>
          </g>
        </g>
        <g id="Grupo_2126" data-name="Grupo 2126" transform="translate(-4.297 380.404)">
          <path id="Trazado_2644" data-name="Trazado 2644" d="M119.894,567.836C210,601.495,309.235,569.7,376.614,537.094c34.669-16.777,68.447-36.679,101.112-55.927,42.286-24.914,86.011-50.677,132.008-69.837,44.895-18.7,158.805-55.912,246.7,2.3,50.562,33.486,85.706,95.265,104.459,183.621,1.765,8.314,3.362,16.728,4.9,25.155H967.7c-1.558-8.555-3.177-17.1-4.971-25.545C943.872,508,908.457,445.828,857.471,412.057c-88.657-58.716-203.291-21.284-248.463-2.468-46.115,19.212-89.9,45.008-132.239,69.956-32.633,19.227-66.375,39.11-100.974,55.851-67.051,32.446-165.757,64.109-255.242,30.674-31.891-11.915-60.975-31.583-89.1-50.608-11.727-7.932-23.6-15.941-35.748-23.454v2.213c11.782,7.32,23.3,15.1,34.693,22.8C58.614,536.109,87.792,555.843,119.894,567.836Z" transform="translate(4.297 -380.404)" fill="#fff"/>
        </g>
      </g>
      <path id="Trazado_2665" data-name="Trazado 2665" d="M7023.975,17175.754c4.186,17.371-.025,58.154,137.624,105.453" transform="translate(-6093 -11801)" fill="none" stroke="#fff" stroke-width="2"/>
    </g>
  </g>
</svg>
